<?xml version="1.0" standalone="no"?> <!DOCTYPE svg PUBLIC "-//W3C//DTD SVG 1.0//EN" "http://www.w3.org/TR/2001/REC-SVG-20010904/DTD/svg10.dtd" > <svg xmlns="http://www.w3.org/2000/svg" width="100%" height="100%">
<defs >
<font id="notechr" horiz-adv-x="362" ><font-face
    font-family="LTNotecHR"
    units-per-em="1000"
    panose-1="2 0 5 5 2 0 0 2 0 4"
    ascent="1134"
    descent="-265"
    alphabetic="0" />
<missing-glyph horiz-adv-x="233" />
<glyph unicode=" " glyph-name="space" horiz-adv-x="233" />
<glyph unicode="!" glyph-name="exclam" horiz-adv-x="277" d="M241 810Q239 807 226 777T194 702T154 604T114 501T84 412T72 355Q72 348 75 340T83 323T97 310T116 304Q117 304 124 305T139 310T154 320T161 337V389Q161 396 167 416T180 459T193 499T199 518Q206
536 213 557T228 599T246 640T271 677Q282 691 296 700T322 717T342 737T350 768Q350 791 332 810T288 829Q285 829 278 827T263 821T249 815T241 810ZM27 121Q27 118 27 111T31 96T39 82T55 76Q62 76 72 81T93 94T110 111T117 129Q117 146 104 159T71 173Q45 173
36 157T27 121Z" />
<glyph unicode="&quot;" glyph-name="quotedbl" horiz-adv-x="426" d="M98 460Q95 454 95 450Q95 441 106 441Q114 441 127 452T158 495T201 587T258 742Q258 743 258 744T259 747Q259 764 244 780T211 797Q202 797 192 793T174 781T160 765T154 747Q154 730 160
723T172 711V693Q172 657 164 624T144 561T120 506T98 460ZM311 460Q308 454 308 450Q308 441 319 441Q326 441 337 450T366 487T407 564T463 693Q463 694 464 703T467 722T470 740T472 747Q472 764 457 780T424 797Q415 797 405 793T387 781T373 765T367 747Q367
730 373 723T385 711V693Q385 657 377 624T357 561T333 506T311 460Z" />
<glyph unicode="#" glyph-name="numbersign" horiz-adv-x="671" d="M453 445Q441 443 426 441T397 437T373 434T359 433Q349 433 344 434T337 437T333 440T329 443Q332 452 339 460T352 478T364 498T369 519Q369 533 361 545T340 567T311 581T278 587Q262 587
250 575T229 543T212 501T200 457T192 420T187 398Q181 393 164 393H136Q122 393 111 389T100 368Q100 356 105 349T119 338T138 333T159 332H172V305Q172 294 166 277T151 246H41Q30 246 26 234T21 214Q21 203 27 195T43 182T64 174T84 171Q88 171 95 172T110
176T125 179T136 181Q143 181 144 180T147 179V161Q147 148 145 134T143 105Q143 86 151 73T185 60H188Q209 61 218 73T233 103T242 139T252 171Q257 182 270 185T301 188Q321 188 343 187T373 180Q369 169 364 153T355 122T347 94T344 76V74Q346 63 357 53T383
42Q389 42 396 60T411 101T428 147T451 178Q453 179 472 180T512 186T551 198T569 221Q569 241 555 247T523 256T492 261T477 274Q477 315 496 336T545 366T608 378T671 384T719 396T739 427Q739 436 734 442T722 453T708 460T694 462Q690 462 677 460T648 455T619
450T603 447H599Q585 447 572 450T559 470Q559 479 565 484T578 494T592 509T598 537V544Q597 556 594 568T584 589T567 605T541 612Q526 612 511 587T483 531T462 474T453 445ZM284 274Q289 294 292 306T300 327T311 340T328 350L423 361Q418 335 411 311T390
261Q388 261 375 261T344 260Q322 260 303 262T284 273V274Z" />
<glyph unicode="$" glyph-name="dollar" horiz-adv-x="520" d="M225 304Q225 298 219 276T203 228T185 182T170 156Q165 153 156 148T136 143Q128 143 118 145T99 151T83 162T76 182Q76 192 71 202T58 220T41 234T21 240Q15 240 8 235T-6 224T-16 210T-20 196V195Q-18
154 -1 131T37 95T80 80T111 76Q120 76 130 78T149 80Q153 80 154 76V64Q154 61 151 50T143 23T135 -8T128 -38Q126 -50 122 -64T112 -94T104 -124T100 -151Q100 -161 105 -170T118 -185T135 -196T153 -200Q172 -200 183 -193T201 -173T209 -146T211 -116V-83Q211
-69 213 -50T219 -10T230 31T245 66Q264 102 286 122T326 159T357 195T369 248Q369 278 363 296T349 328T335 354T329 387Q329 434 342 477T371 573Q373 581 375 591T382 609T392 624T411 630Q417 630 428 624T451 617Q465 617 482 626T513 649T538 681T548 716Q548
741 529 754T488 776T446 791T427 807Q427 829 438 846T462 879T486 912T497 953Q497 976 486 988T447 1000Q432 1000 419 991T395 969T379 939T373 906Q373 896 374 884T376 859Q376 847 374 836T364 815T343 801T307 795Q294 795 271 791T220 778T164 755T113
718T75 667T60 600Q60 580 67 562T86 528T109 496T131 468Q143 451 159 431T189 390T214 346T225 304ZM238 530Q224 562 224 590Q224 610 230 624T247 648T268 663T290 670H309V646Q309 644 305 623T295 573T283 518T271 476Q251 490 247 503T238 530Z" />
<glyph unicode="%" glyph-name="percent" horiz-adv-x="578" d="M386 784Q373 759 356 719T323 637T293 560T274 510Q266 490 250 452T213 368T172 273T134 179T105 102T93 56Q93 39 106 25T143 10Q162 10 169 19T179 41T182 68T186 94Q216 187 261 278T355 456Q370
483 387 513T425 570T472 621T530 656Q539 668 545 680T551 710Q551 728 541 746T515 778T480 801T442 810Q437 810 429 809T412 804T396 796T386 784ZM26 536Q26 525 30 513T42 491T63 475T90 468Q97 468 112 475T145 493T184 518T220 549T246 580T257 608Q257
631 243 655T190 704Q190 707 187 720T177 749T161 776T138 788Q123 788 109 772T83 730T60 674T42 615T30 565T26 536ZM234 127Q234 111 240 96T257 70T284 51T317 44Q335 44 362 54T414 81T456 122T474 171Q474 183 460 202T427 239T388 271T358 285Q331 285
308 268T269 226T243 174T234 127ZM85 553Q85 569 91 587T108 620T136 645T175 655Q189 655 197 645T206 624Q206 610 192 595T160 566T123 544T98 535Q89 535 87 538T85 546V553ZM300 135V139Q300 149 302 162T312 186T333 205T368 213Q382 213 391 201T400 178Q400
164 390 153T367 133T339 120T318 115Q306 115 303 122T300 135Z" />
<glyph unicode="&amp;" glyph-name="ampersand" horiz-adv-x="727" d="M81 160V159Q81 153 98 153Q117 153 152 160T228 180T307 209T372 244Q374 244 374 249Q374 255 371 268T364 296T355 328T348 356Q316 341 273 315T188 261T117 205T81 160ZM413 578Q414
580 423 597T447 639T481 692T522 743T567 782T615 798H620Q643 796 657 785T680 759T691 727T694 699Q694 660 676 631T631 579T573 538T514 502T469 466T451 425V345Q451 336 452 326T456 306T465 290T483 283Q499 283 516 288T552 299T587 311T618 316Q639 316
650 304T662 279Q662 264 651 254T623 238T586 226T550 214T522 200T510 180Q510 160 525 140T563 102T615 68T671 41T720 23T753 16Q757 16 759 17T765 18Q780 18 792 -3T805 -50V-52Q805 -71 798 -84T780 -104T755 -115T726 -118Q688 -118 643 -94T552 -31T467
57T400 159Q394 157 372 148T317 125T248 98T176 71T112 51T66 43Q39 43 19 52T-13 77T-32 114T-39 158Q-39 189 -13 218T54 276T143 334T234 393Q264 414 287 431T330 469T370 514T413 578Z" />
<glyph unicode="&apos;" glyph-name="quotesingle" horiz-adv-x="213" d="M98 460Q95 454 95 450Q95 441 106 441Q114 441 127 452T158 495T201 587T258 742Q258 743 258 744T259 747Q259 764 244 780T211 797Q202 797 192 793T174 781T160 765T154 747Q154 730
160 723T172 711V693Q172 657 164 624T144 561T120 506T98 460Z" />
<glyph unicode="(" glyph-name="parenleft" horiz-adv-x="335" d="M35 190Q35 166 36 132T41 60T49 -15T63 -81T84 -129T112 -148Q129 -148 135 -134T141 -102Q141 -84 140 -74T138 -57T135 -41T132 -17T130 24T129 90Q129 157 138 227T169 365T227 499T317 625Q328
637 354 640T409 650T458 671T482 722V726Q482 745 472 761T445 788T411 806T376 812Q325 812 280 778T197 690T129 567T78 429T46 297T35 190Z" />
<glyph unicode=")" glyph-name="parenright" horiz-adv-x="395" d="M163 731Q163 725 168 709T181 673T195 638T205 617Q216 595 230 561T245 475Q245 446 234 398T206 293T168 176T127 62T89 -34T62 -98Q52 -118 52 -134Q52 -148 60 -156T82 -164Q90 -164 99
-161Q150 -76 199 18T289 208T353 395T378 568Q378 589 371 628T349 705T311 771T256 799Q246 799 231 796T200 785T174 764T163 731Z" />
<glyph unicode="*" glyph-name="asterisk" horiz-adv-x="431" d="M460 707Q460 713 455 719T442 732T425 742T408 746H407Q399 739 384 732T355 720T330 711T323 707Q321 707 321 709Q323 727 335 744T361 773T386 794T397 802Q397 809 393 817T381 832T366 843T349
848H348Q339 847 326 835T298 804T272 764T255 724Q243 730 236 735T223 744T210 750T192 753Q163 753 151 745T138 718Q138 700 139 691T146 678T163 671T192 666Q198 664 205 663T218 660H219Q221 660 221 661T222 662Q222 659 205 644T166 612T126 579T107 559Q108
549 122 538T151 527H152Q158 527 167 532T179 544Q185 554 197 567T223 594T246 616T260 625Q266 625 272 609T287 572T307 535T332 518H333Q353 520 361 530T369 553V556Q369 560 364 569T353 590T342 618T336 649V650Q336 664 355 672T397 685T439 694T460 707Z"
/>
<glyph unicode="+" glyph-name="plus" horiz-adv-x="423" d="M200 516Q198 502 195 483T184 446T165 417T132 405H112Q102 405 92 404T74 399T61 387T56 366Q56 350 69 339T96 327Q105 327 111 330T123 338T131 347T140 351Q145 351 148 348T152 341Q152 339 150
323T144 289T139 255T136 237Q136 227 144 216T167 205Q188 205 198 223T212 266T219 316T228 353Q236 355 245 356T259 358Q261 358 269 358T286 356T303 355T314 354H321Q327 354 334 354T348 357T359 365T364 379Q364 395 346 400T306 409T266 415T248 431Q248
448 258 463T280 492T302 521T312 551Q312 569 298 587T258 605Q240 605 230 596T213 574T205 545T200 516Z" />
<glyph unicode="," glyph-name="comma" horiz-adv-x="213" d="M30 -142Q27 -148 27 -152Q27 -161 38 -161Q45 -161 56 -152T85 -115T126 -38T182 91Q182 92 183 101T186 120T189 138T191 145Q191 162 176 178T143 195Q134 195 124 191T106 179T92 163T86 145Q86
128 92 121T104 109V91Q104 55 96 22T76 -41T52 -96T30 -142Z" />
<glyph unicode="-" glyph-name="hyphen" horiz-adv-x="454" d="M332 267Q316 265 298 265Q281 265 263 265Q236 265 210 266T160 268Q136 268 126 252T115 222Q115 219 119 212T131 198T146 186T162 180H165Q175 182 184 188T205 196Q240 199 282 199T381 202H386Q405
202 417 196T447 189Q456 189 467 200T479 228Q479 235 475 244T464 261T447 274T423 280Q420 280 409 278T385 274T357 270T332 267Z" />
<glyph unicode="." glyph-name="period" horiz-adv-x="185" d="M193 114Q193 124 189 136T178 158T159 176T133 183Q112 183 96 166T79 128Q79 117 86 106T103 85T127 70T153 64Q173 64 183 79T193 114Z" />
<glyph unicode="/" glyph-name="slash" horiz-adv-x="535" d="M423 774Q397 730 362 661T288 512T211 350T142 196T91 72T66 1Q64 -7 63 -14T62 -26Q62 -31 65 -39T74 -57T89 -72T113 -79Q128 -79 143 -70T159 -36Q159 -28 156 -20T153 -1Q153 11 160 32T176 75T193
115T206 141Q212 154 220 170T235 203T250 234T262 259Q287 312 322 369T400 480T490 580T587 660Q602 690 602 718Q602 742 592 760T566 792T534 812T504 820H497Q471 820 455 809T423 774Z" />
<glyph unicode="0" glyph-name="zero" horiz-adv-x="493" d="M507 709Q502 733 483 749T438 765Q427 765 419 762T399 757Q396 756 392 762T379 777T358 793T326 800Q291 800 265 781T209 729Q200 718 173 684T117 594T65 461T42 288Q42 255 46 217T64 146T100
91T161 69Q191 69 221 86T280 131T335 194T382 266T421 337T448 399Q460 432 471 468T492 539T506 607T511 666Q511 689 507 709ZM460 683V677Q460 642 453 603T433 522T404 441T371 365Q364 350 352 328T323 280T288 230T248 186T206 154T163 141Q144 141 133
156T117 191T110 232T108 262V269Q108 312 117 359T145 454T188 545T245 626Q247 615 248 614T250 609Q230 564 214 518T187 428T171 343T165 269Q165 247 171 230T195 213H198Q207 215 211 219T218 236Q220 281 223 310T233 369Q239 396 251 432T278 505T313 578T352
642T394 687T436 704Q444 704 451 700T460 683Z" />
<glyph unicode="1" glyph-name="one" horiz-adv-x="494" d="M507 751Q507 757 505 764T499 779T486 791T466 796Q452 796 439 790T412 774T385 752T356 727Q311 692 266 654T173 578Q157 566 139 553T101 532Q86 526 72 521T48 508T31 489T24 462Q24 455 27 446T37
427T54 412T77 404H80Q100 404 116 412T144 435Q163 460 194 491T257 549T312 594T342 613Q348 613 348 611Q348 610 350 610V596Q341 574 327 541T296 469T261 386T225 302T191 223T161 156Q151 134 149 121T147 103V99Q147 85 158 76T182 66H184Q191 66 197 69T206
80Q231 152 264 238T340 413Q355 444 372 479T408 549T445 618T480 683Q481 684 485 693T494 713T503 734T507 751Z" />
<glyph unicode="2" glyph-name="two" horiz-adv-x="500" d="M471 603Q472 608 472 614T473 629Q473 650 467 676T443 725T396 765T320 785H306Q261 785 230 770T179 731T151 681T142 631Q142 607 150 592T169 569T192 557T214 554Q252 554 268 585Q273 597 273
611Q273 626 276 639T291 661T329 670H336Q355 667 370 652T387 613V605Q387 579 380 561T367 531Q350 501 324 464T265 387T192 308T110 235Q94 222 80 212T46 192Q40 188 27 186T7 178Q-22 156 -22 129Q-22 112 -16 102T-1 86T19 78T41 76H49Q66 76 87 80T134
89T187 98T244 105H250Q283 105 306 95T342 85H345Q358 85 369 91T381 114Q381 154 342 169T228 189H220H215Q204 191 198 193T191 202Q191 209 199 217Q239 261 272 298T333 371T387 442T437 517Q448 536 457 557T471 603Z" />
<glyph unicode="3" glyph-name="three" horiz-adv-x="440" d="M408 685Q408 718 392 739T353 773T303 791T255 796Q238 796 221 792T191 780T168 760T159 729Q159 718 164 706T178 684T201 668T229 662Q245 662 254 668T271 681T283 695T297 702Q310 702 315 697T320
676Q320 663 304 644T266 605T220 568T181 540Q167 531 149 522T115 501T88 476T77 443Q77 423 93 410T129 397Q137 397 155 400T193 406T234 413T267 416H274Q286 416 297 412T308 390Q308 368 284 342T224 287T146 231T67 177T6 131T-20 95Q-20 93 -20 93T-21
90Q-21 78 -12 72T8 66H11Q18 67 32 75T63 92T92 110T108 122Q139 146 175 169T247 219T316 277T373 350Q381 364 385 380T390 404Q390 432 373 453T316 485Q314 485 308 486T294 489T281 495T275 504Q275 506 285 514T309 536T341 566T373 602T398 643T408 685Z"
/>
<glyph unicode="4" glyph-name="four" horiz-adv-x="344" d="M335 553Q335 573 319 590T280 607Q278 607 270 605T251 599T231 592T213 589H211Q202 589 199 592T195 599Q195 606 201 615T216 634T235 650T252 660Q273 668 292 684T311 732Q311 761 289 780T241
800Q216 800 202 788T178 756T160 716T138 679Q122 659 108 633T76 584Q68 572 60 551T51 515Q51 490 65 474T106 457Q120 457 141 464T175 472Q186 472 186 460V456Q181 438 167 409T140 347Q127 311 115 278T92 211Q88 199 84 185T75 155T67 124T64 97V92Q64
86 66 78T77 70Q92 70 104 84T128 123Q144 160 158 199T188 279T223 357T271 431Q275 436 286 451T307 484T326 520T335 553Z" />
<glyph unicode="5" glyph-name="five" horiz-adv-x="505" d="M596 732Q593 749 576 753T538 758Q505 758 482 757T439 754T397 749T346 743Q344 743 343 743T339 742Q331 742 328 750T320 768T307 788T282 800H278Q259 800 246 789T228 760Q225 756 223 754T213
750Q208 750 205 750T196 751Q194 751 187 749T171 742T157 727T150 701V697Q151 688 156 680T168 666T180 656T185 649Q185 649 177 629T158 582T139 529T130 490Q130 484 132 478T137 465Q148 441 167 435T205 425T237 412T251 373Q251 345 242 315T215 256T175
204T125 169H123Q121 169 121 171V173Q131 188 142 201T154 230Q154 238 149 246T133 254Q128 254 120 252Q114 252 101 241T71 213T41 180T20 150Q18 145 17 136T15 120Q15 114 18 106T28 89T45 76T68 70Q90 70 115 81T165 110T211 146T244 183Q284 238 303 284T322
379Q322 411 313 430T290 460T258 479T222 496Q214 501 214 512Q214 516 221 540T240 593T263 645T287 675Q292 677 304 679T330 684T360 687T385 690Q415 693 440 694T487 696T529 697T569 699Q577 700 586 707T596 729V732Z" />
<glyph unicode="6" glyph-name="six" horiz-adv-x="561" d="M552 659Q552 678 544 702T519 749T479 785T425 800Q392 800 357 784T289 742T226 687T174 628Q154 603 132 570T89 498T50 417T20 334Q7 289 5 255T3 201Q3 180 8 157T26 114T61 83T117 70Q153 70 200
92T290 151T362 235T391 334Q391 387 357 421T267 455Q248 455 232 453T201 444T171 427T139 398Q147 430 159 452T190 503Q194 509 205 524T232 560T268 601T309 639T350 668T387 680Q400 680 405 673T412 655T414 633T419 613Q430 591 447 584T479 576Q514 576
533 601T552 659ZM314 325Q312 302 297 272T257 214T198 168T124 149Q117 149 110 151T96 160T87 180T83 216Q83 235 88 255T106 312V309Q106 280 112 256T127 214T147 187T168 177Q203 177 203 211Q203 223 200 230T192 245T184 262T180 288Q180 304 184 320T197
350T221 373T259 382Q285 382 299 366T314 329V325Z" />
<glyph unicode="7" glyph-name="seven" horiz-adv-x="451" d="M524 411V412Q524 424 505 431T459 442T403 447T352 449H312H301Q289 450 289 455Q289 458 292 463Q322 511 350 554T404 638Q409 646 417 658T434 685T449 714T455 741Q455 796 389 799H373Q319 799
261 788T154 758T74 719T43 677Q43 672 42 661T40 644Q41 618 62 598T112 578Q121 578 130 581T148 591T162 604T170 617Q175 644 196 660T242 686T289 698T317 701Q326 701 329 698T332 687V684Q332 674 325 660T309 629T288 595T268 563Q260 550 252 534T236
502T218 472T200 446Q196 442 185 440T160 436T131 435T103 434H90Q86 434 82 435T73 436H70Q50 432 43 419T36 396Q36 376 49 366T83 356Q90 356 97 360T113 368T130 377T150 381Q161 381 161 376Q161 375 159 371Q149 353 134 323T105 259T80 190T70 131Q70 108
81 89T121 70Q131 70 136 75T144 87T147 100T148 109V110Q148 119 147 126T145 144Q145 165 151 191T168 247T195 307T231 364Q239 374 252 380T279 389T309 392T335 393H341H351Q372 394 386 394T414 395Q431 395 449 391T485 387H489Q500 391 511 396T524 411Z"
/>
<glyph unicode="8" glyph-name="eight" horiz-adv-x="415" d="M411 626Q411 647 396 662T361 678H359Q360 679 363 684T370 696T376 711T379 728Q378 759 357 779T301 800Q277 800 253 791T210 757T178 692T165 586Q165 569 166 553T167 519Q167 503 164 489T151
463Q133 441 106 410T53 342T9 268T-10 192Q-10 172 -4 151T15 111T47 82T93 70Q105 70 118 75T143 90T165 110T182 131Q202 163 212 209T227 321Q228 327 228 343T230 379T235 417T246 445Q258 461 271 473T299 496T327 515T354 537Q362 544 372 553T390 574T405
599T411 626ZM147 346Q147 339 146 336Q140 304 136 274T127 220T115 182T95 167Q83 167 78 178T71 201V210Q71 245 93 279T141 348Q143 350 144 350Q145 350 147 346ZM338 666Q335 658 329 645T314 619T293 597T267 588Q258 588 258 598Q258 606 262 617T275 641Q281
649 288 652T303 657T320 660T338 666Z" />
<glyph unicode="9" glyph-name="nine" horiz-adv-x="383" d="M365 671Q364 682 361 693T339 719Q336 721 330 724T319 732Q314 739 313 750T304 773Q290 791 275 797T246 803H237Q215 801 194 784T154 741T119 683T91 616T72 550T65 493Q65 474 71 455T91 421T126
396T178 386H180Q182 384 183 383T184 378V374Q179 345 170 318T146 263T108 206T55 143Q42 130 30 121T18 97V94Q19 86 25 80T40 74H42Q56 75 72 87T103 117T130 152T151 181Q197 248 222 316T264 442Q272 467 288 496T322 554T352 611T365 663V671ZM255 695Q249
690 243 680T237 659Q237 647 239 637T242 616Q242 589 234 561T214 511T187 473T161 457H157Q144 457 136 468T127 491V495Q127 514 135 547T156 613T186 668T221 692H224Q226 692 226 692T229 691Q234 691 240 693T252 697H253Q254 697 254 696T255 695Z" />
<glyph unicode=":" glyph-name="colon" horiz-adv-x="233" d="M259 368Q259 378 256 389T245 409T228 425T204 432Q184 432 169 416T154 382Q154 371 160 361T176 342T198 329T222 323Q239 323 249 337T259 368ZM77 109Q77 105 77 97T81 81T90 66T108 59Q115 59
127 64T149 78T168 97T176 117Q176 137 162 151T125 166Q97 166 87 149T77 109Z" />
<glyph unicode=";" glyph-name="semicolon" horiz-adv-x="233" d="M51 -152Q48 -157 48 -160Q48 -169 61 -169Q70 -169 80 -163T107 -133T147 -58T205 79Q205 81 206 91T208 111T211 129T212 135Q212 152 197 168T164 185Q153 185 141 180T117 166T98 144T90 113Q90
111 92 104T98 88T104 72T111 61Q111 51 110 44T108 30T104 15T100 -6Q95 -33 90 -53T78 -90T65 -121T51 -152ZM265 356Q265 366 262 377T251 397T234 413T209 420Q190 420 175 404T160 370Q160 359 166 349T182 330T204 317T228 311Q245 311 255 325T265 356Z"
/>
<glyph unicode="&lt;" glyph-name="less" horiz-adv-x="439" d="M73 476Q64 474 59 462T53 439Q53 418 69 396T110 354T164 314T218 280T262 253T284 237Q289 225 302 209T336 192Q343 192 349 197T359 209T367 225T370 240Q370 259 356 274T321 304T275 332T229
358T194 386T180 418Q180 424 192 430T220 442T251 451T271 454Q277 454 286 451T301 448Q324 448 337 465T351 505Q351 531 332 552T281 573Q273 573 257 567T221 550T179 529T135 506T98 487T73 476Z" />
<glyph unicode="=" glyph-name="equal" horiz-adv-x="494" d="M63 479Q60 468 60 458Q60 442 68 431T88 412T110 401T127 397Q139 397 148 402T175 419H176Q178 419 184 419T198 421T211 422T219 423Q231 424 249 425T286 427T323 428T353 429Q367 429 381 429Q395
429 414 427Q417 427 420 424T427 420H428Q445 420 458 433T472 461Q472 494 446 502T377 511Q360 511 342 511T305 510Q273 510 231 510Q189 510 131 508Q129 508 124 510T109 512Q98 512 82 502T63 479ZM22 312Q22 307 26 300T38 287T52 277T66 272Q72 272 82
274T114 280T172 286T264 289Q271 289 276 288T285 286T296 284T311 283Q317 283 324 286T338 295T350 310T355 331Q355 342 346 347T312 353H303Q288 352 268 352T221 351Q168 351 95 354Q91 357 84 357T74 358Q52 358 37 347T22 312Z" />
<glyph unicode="&gt;" glyph-name="greater" horiz-adv-x="451" d="M105 517Q105 510 109 498T121 473T138 449T159 432Q171 427 186 423T211 417V406Q211 400 200 387T171 358T134 324T97 288T69 255T57 229Q57 210 69 198T101 186Q109 186 127 198T167 229T213
270T258 313T295 348T317 368Q330 378 345 382T374 392T397 407T406 435Q406 470 388 485T345 507T291 515T243 525Q242 525 234 528T220 534T213 537Q213 537 215 536T223 533Q199 547 179 558T143 570Q122 570 114 553T105 517Z" />
<glyph unicode="?" glyph-name="question" horiz-adv-x="341" d="M410 695Q410 730 389 757T329 784Q312 784 287 776T238 752T197 716T180 668Q180 647 189 632T210 606T230 588T240 577Q240 562 228 547T201 513T174 468T162 408Q162 396 166 381T180 353T203
331T238 322Q255 322 262 327T278 346Q265 360 256 382T246 424Q246 440 271 469T328 536T384 615T410 695ZM257 115Q257 124 254 134T245 152T229 167T207 173Q190 173 176 159T162 127Q162 118 167 109T182 92T202 79T224 74Q240 74 248 86T257 115Z" />
<glyph unicode="@" glyph-name="at" horiz-adv-x="723" d="M641 356Q633 340 629 333T621 321T611 308T591 285Q576 268 558 255T522 233T490 220T470 215Q443 215 443 253Q443 288 455 313T484 356T515 385T535 401Q542 409 542 424Q540 450 521 465T482 480Q466
480 459 473T447 457T441 441T433 434Q431 434 427 439T415 450T398 461T376 466Q359 466 345 461T321 450T303 437T293 429H292Q290 429 288 432T276 438H272Q258 438 248 427T229 398T216 359T206 317T201 281T199 258Q199 231 215 215T257 199H258Q277 199 296
207T330 224T356 242T370 251Q376 251 379 238T390 208T413 177T461 163Q473 163 494 172T537 195T579 225T610 253Q623 268 632 278T649 299T662 322T676 357Q678 364 681 383T684 417V426Q677 483 650 529T581 607T484 658T367 676Q284 676 219 646T103 558Q20
459 20 334Q20 259 45 196T117 88T226 16T363 -10H367Q423 -10 464 0T537 28T594 73T643 131H598Q548 73 494 47T367 21Q305 21 250 45T152 109T86 201T61 311Q61 380 85 440T150 546T248 617T367 643H371Q425 643 474 627T560 582T622 510T651 417V414Q651 403
648 384T641 356ZM401 373Q401 359 388 338T354 296T309 262T264 247Q255 247 251 252T247 265Q247 270 248 274T255 282Q256 282 262 278T276 274Q287 274 290 279T294 293Q294 298 293 302T292 310V311Q292 327 298 344T316 375T343 398T376 407Q391 407 396
394T401 373Z" />
<glyph unicode="A" glyph-name="A" horiz-adv-x="716" d="M717 328Q746 330 766 342T786 380Q786 385 784 393T770 404H742Q713 403 700 402T668 400L618 397H609Q605 397 599 398T593 411Q593 415 597 426T606 450T616 475T624 493Q632 510 640 527T656 562L671
595Q691 640 707 677T724 731Q724 742 718 754T701 775T679 791T657 798Q650 798 633 784T595 748T549 701T503 653Q478 628 452 603T401 554T355 510T318 475Q275 435 245 406T191 355T152 316T121 284T93 255T62 223L37 197Q11 171 2 155T-8 117Q-8 93 0 73T23
38T56 16T96 8Q118 8 131 16T152 35T162 59T165 81Q165 91 164 98T163 113Q163 139 172 165T195 215T227 259T263 293Q286 311 300 314T331 317Q372 317 394 318T429 319T446 320T456 321Q461 321 464 319T468 311Q468 309 468 307T466 296T461 271T452 226Q444
189 442 176T439 158Q439 143 444 131T458 111T477 97T496 92Q509 92 518 102T528 131Q528 144 525 147T522 163Q522 173 524 189T531 223T540 257T550 284L553 290Q557 298 560 304T569 315T586 321T618 325Q647 326 672 326Q697 326 717 328ZM491 392Q475 388
461 388Q453 388 446 388T429 389H414Q409 389 401 390T392 399Q392 405 396 410T403 418Q416 430 421 436T429 446T437 455T453 470Q461 477 471 486T492 504T513 520T529 530Q532 528 533 525T535 512Q535 505 530 488T522 459Q516 439 511 427T502 407T495 397T491
392Z" />
<glyph unicode="B" glyph-name="B" horiz-adv-x="631" d="M623 769Q623 771 623 772T624 776Q624 797 609 810T574 831T535 842T507 845Q480 845 464 831T435 794T407 741T367 682Q363 677 360 673T350 669Q333 669 321 672T284 677H274Q256 677 233 674T189 662T153
640T134 609V607Q134 599 140 592T156 580T174 571T191 566H192Q198 566 206 572T226 587T251 602T281 609Q287 609 294 608T302 597V592Q301 589 290 569T262 519T226 456T189 392T160 341T145 314Q142 308 133 293T112 259T92 221T80 189V184Q80 171 87 159T104
138T127 122T151 116Q178 116 189 132T209 175T228 236T261 307Q263 296 274 283T297 270H309Q378 270 410 261T443 224Q443 204 420 176T359 124Q344 115 323 112T283 106T248 99T231 82V79Q231 62 243 47T274 21T312 4T350 -3Q387 -3 427 23T500 87T554 162T576
224Q576 258 559 280T520 317T481 343T463 365V367Q465 377 480 384T505 403Q531 431 542 457T553 509Q553 555 521 591T440 644Q458 667 471 677T497 690T523 694T553 701Q587 712 603 729T623 769ZM424 498Q422 479 411 463T385 435T354 416T322 409H317Q313
409 310 409T306 413Q306 418 312 431T327 462T348 497T369 531T385 556T393 566Q399 566 412 550T425 508Q425 506 425 503T424 498Z" />
<glyph unicode="C" glyph-name="C" horiz-adv-x="478" d="M431 165Q398 146 371 135T322 117T281 109T247 107H239Q221 107 210 115T193 137T186 166T184 197V211Q184 230 195 269T227 356T273 454T331 545T398 612T468 639Q477 639 492 631T523 623Q550 623 571
643T593 696V698Q593 723 582 743T552 777T510 800T461 808H460Q416 808 374 781T292 710T218 609T158 493T116 376T95 274Q92 244 92 216Q92 178 99 146T122 89T165 52T229 38Q255 38 289 48T357 72T420 101T464 127Q478 137 494 150T525 175T548 200T558 222Q558
228 554 233T541 239Q531 239 521 233T503 220Q490 209 481 201T464 187T449 176T431 165Z" />
<glyph unicode="D" glyph-name="D" horiz-adv-x="744" d="M707 328Q722 360 728 390T735 447Q735 505 716 540T669 596T614 625T566 638Q565 638 565 640Q565 644 570 656Q583 683 599 692T631 705T656 716T666 744Q666 763 657 779T632 807T599 826T562 833H555Q547
832 540 825T528 809T518 790T512 774Q504 751 494 729T473 687T455 656T442 642Q439 641 433 641T417 639T399 637T382 635Q360 632 330 628T265 616T197 597T136 571T90 536T68 491V487Q68 473 76 459T101 442H106Q115 442 122 450T139 471T161 496T194 520Q217
531 237 539T278 552T321 561T370 566H376Q385 566 395 563T405 546Q405 544 393 514T362 439T319 344T271 250T225 177T188 146H180H157Q139 146 123 142T104 123V118Q104 105 113 91T136 64T165 44T192 35H202Q227 35 238 41T256 56T266 70T280 77Q312 80 358
85T451 109T539 153T613 208T670 268T707 328ZM647 433Q645 367 612 312T533 218T434 157T340 135Q331 135 323 137T314 148Q314 149 316 155Q331 184 350 224T391 309T433 396T472 473T503 529T522 551H529Q550 551 571 542T609 517T636 480T647 436V433Z" />
<glyph unicode="E" glyph-name="E" horiz-adv-x="637" d="M765 613Q765 619 762 627T743 644T696 658T608 664Q583 664 540 661T422 658Q424 662 428 669T443 686Q448 691 453 697T459 716Q459 728 453 741T435 766T404 786T360 794Q351 794 344 792T329 781T313
759T295 720L280 681Q275 670 272 662T264 642Q233 637 210 636T167 634Q150 634 133 635T99 637Q76 637 67 630T58 611Q58 597 72 588T108 573T156 565T205 562H227V561L212 530Q206 518 196 496T173 450T149 410T126 393Q120 393 115 395T89 397Q75 397 70 393T64
377Q64 365 69 356T81 341T92 330T98 323Q98 322 95 316Q83 291 75 276T59 246T41 209T15 152Q6 131 1 117T-4 90Q-4 87 -1 78T9 60T30 43T63 35Q96 35 135 38T216 47T297 59T370 72T427 83T461 90T482 94T504 101T522 111T530 125Q530 136 515 149T476 162Q465
162 447 160T390 149L323 136Q314 134 287 131T228 125T169 120T129 117Q127 117 122 119T117 129Q117 135 125 156T147 205T175 261T202 312Q230 313 242 313T261 314T270 315T283 317L316 320Q338 322 368 325T427 334T474 352T493 382Q493 396 481 406T447 417Q433
417 418 413T393 407L366 401Q345 396 328 395T291 393Q266 393 258 394T247 396L331 526Q338 538 343 545T354 556T365 564T378 569Q390 572 410 575T452 580T496 584T529 587Q539 588 557 589T596 591T633 592T659 593Q683 593 704 589T728 585Q739 585 752 592T765
613Z" />
<glyph unicode="F" glyph-name="F" horiz-adv-x="616" d="M795 712Q791 729 785 739T770 753T747 759T716 760Q685 760 658 758T606 753T557 748T509 746Q500 746 491 754T472 772T450 790T426 799Q409 799 400 793T383 778T371 758T357 738Q357 738 338 736T274
730Q267 730 252 729T226 728T213 727Q213 727 204 727T182 728T160 729T146 730Q133 728 125 723T116 701V696Q117 690 121 680T132 659T148 642T168 635H172Q206 645 229 650T268 659T297 662T324 663Q328 663 328 662Q324 653 313 627T285 564T251 486T214 403Q211
397 205 394T196 390H195Q175 392 162 394T134 398T103 403T61 409Q51 409 43 400T35 380Q35 368 58 360T108 345T159 335T182 327Q182 320 178 311T171 293Q167 282 157 256T136 200T117 145T108 113V112Q108 107 110 98T118 79T130 63T146 56H149Q169 56 181
71T204 118T231 199T273 317Q275 323 289 325Q316 324 343 324T391 323Q414 323 452 325T527 333T590 351T617 384Q617 395 611 405T584 416Q572 416 559 412Q552 410 530 407T483 399T435 393T403 389Q380 387 356 387T312 385H310Q304 385 304 390Q304 392 305
393T306 397Q318 427 334 458T365 519T395 574T419 617Q431 640 446 658T483 678Q530 682 560 684T626 687Q672 687 710 685T775 681H777Q785 681 790 688T796 706Q796 708 796 709T795 712Z" />
<glyph unicode="G" glyph-name="G" horiz-adv-x="749" d="M823 383Q822 392 815 399T799 411T779 418T762 421H758Q673 413 579 406T378 396Q372 396 364 396T346 398T330 399T321 400Q315 400 304 396T293 378V373Q293 358 299 349T313 335T330 327T344 325H347Q359
326 376 328T412 332T450 335T483 337Q499 337 499 333Q499 328 492 320T476 301T456 280T439 264Q415 240 388 220T332 184T275 160T223 151H218Q171 152 147 176T122 249Q122 269 126 291T137 334T151 372T166 401Q191 444 227 489T305 571T395 633T490 657Q492
657 500 656T518 654T536 652T548 651Q554 651 563 652T582 656T597 666T604 685Q604 706 587 719T548 740T505 750T475 753Q434 753 389 737T306 697Q289 686 273 671T240 640Q200 605 163 562T98 469T52 367T35 259Q35 220 49 182T107 109Q133 88 161 80T216
72Q247 72 279 82T341 106T393 133T428 152Q429 152 429 152Q429 153 430 153Q433 153 434 147T435 132Q435 122 435 111T434 91Q434 65 448 42T491 16H494Q507 16 518 24T530 52Q530 65 527 72T520 85T513 98T509 117Q509 129 514 150T527 193T541 231T550 254Q567
294 582 319T610 345Q645 350 671 352T719 356T762 359T809 362Q814 366 818 372T823 383Z" />
<glyph unicode="H" glyph-name="H" horiz-adv-x="753" d="M759 345V349Q759 365 751 374T730 384H727Q716 383 707 383Q698 383 690 383H660Q648 383 632 384T601 387T576 393T566 401Q566 408 576 432T601 485T632 538T659 574Q673 587 681 599T692 628Q692 638
687 647T674 664T657 675T638 680H633Q617 680 601 671T583 640Q583 626 578 609T565 575T549 539T535 503T523 467T510 432T498 406T490 396H489Q470 398 455 398T424 399Q409 399 392 399T352 398Q349 398 341 398T321 397Q311 397 300 397T280 400T265 405T259
415V416Q259 430 269 454T292 502T317 546T335 572Q346 590 361 602T391 627T415 653T425 686Q425 699 420 715T403 746T375 771T336 783Q323 783 301 777T260 742Q254 731 252 704T243 652Q243 650 232 623T207 560T178 485T155 424Q147 402 134 394T108 380T84
367T71 338V334Q71 323 74 315T81 300T88 285T92 268V265Q91 262 87 246T78 219Q76 210 74 198T71 175T69 155T68 145V138Q68 126 70 112T79 85T95 63T120 52H123Q138 52 151 65T167 97V150Q167 164 171 187T183 234T202 278T228 305Q255 312 283 314T338 316H357H369Q382
316 397 316T425 317T447 318T458 319Q461 319 461 318T464 316V308Q443 258 426 205T395 105T374 22T366 -30V-34Q366 -47 374 -55T396 -64Q404 -64 411 -60T421 -41Q432 30 457 118T518 295Q523 309 533 313T558 318Q574 318 590 317T619 314T642 311T656 310H658H678Q690
310 704 311T730 315T750 326T759 345Z" />
<glyph unicode="I" glyph-name="I" horiz-adv-x="365" d="M419 689Q416 716 402 735T369 766T328 784T290 790Q274 790 265 788T250 779T239 757T226 717Q226 716 218 697T200 653T181 607T168 579Q162 565 153 537T132 475T109 404T87 336T69 283T61 256Q55 235
47 217T30 182T17 152T11 122Q11 113 16 104T32 88T55 75T83 70Q105 70 121 93T150 149T171 219T189 284Q192 293 200 318T218 375T238 436T254 485Q259 499 266 515T284 547T306 575T335 596Q347 602 361 608T389 625T411 647T420 678Q420 685 419 689Z" />
<glyph unicode="J" glyph-name="J" horiz-adv-x="453" d="M537 687Q539 697 539 702Q539 717 530 734T505 768T467 794T420 805Q411 805 400 804T377 797T359 779T351 745Q351 737 352 728T353 708Q353 703 353 698T351 686Q349 676 342 647T323 579T300 498T276
422Q257 364 246 328T225 269T208 229T189 195Q178 178 167 166T143 145T111 133T68 128Q53 128 33 135T-4 143Q-21 143 -30 130T-39 107Q-39 85 -24 72T13 52T54 43T85 41Q156 41 200 72T273 151T320 258T360 373Q369 397 376 416T390 454T402 492T414 536Q424
577 436 600T461 635T485 652T507 659T525 668T537 687Z" />
<glyph unicode="K" glyph-name="K" horiz-adv-x="725" d="M703 632Q703 634 703 635T704 639Q704 653 693 667T664 682Q654 682 642 676Q611 662 584 650T522 620Q516 617 494 605T438 575T366 535T290 490H289Q286 490 286 493Q286 496 291 511T305 545T324 583T344
617Q350 625 364 631T394 644T422 664T437 697V699Q437 713 426 730T397 761T358 786T317 796Q300 796 291 788T276 767T265 737T251 702Q244 687 236 667T216 617T190 545T156 443Q153 435 146 430T131 419T117 408T111 394Q111 383 118 371T125 348Q125 346 125
346T124 343Q113 310 100 264T75 174T55 99T46 67V63Q46 54 53 47T70 35T93 27T116 21H121Q134 21 146 27T163 59V63Q163 67 163 73T162 86Q162 90 162 94Q162 98 164 103Q171 125 178 149T191 194T204 228T216 242Q219 242 237 226T278 189T324 148T361 117Q402
87 436 68T497 37T545 21T582 16Q614 17 630 38T647 83Q647 95 642 102T630 114T613 120T597 122Q587 122 577 121T555 120H549Q531 121 504 133T450 163T397 200T356 234Q344 246 335 255T317 275T298 297T275 327Q268 336 259 350T249 381Q249 389 283 416T376
476T511 541T671 595Q674 595 678 596T688 600T697 610T703 632Z" />
<glyph unicode="L" glyph-name="L" horiz-adv-x="669" d="M622 156Q619 155 601 151T554 141T490 127T416 115T340 105T270 101Q241 101 217 105T193 121V123Q195 142 201 163T215 213Q220 231 229 259T249 319T273 386T295 451T315 506T328 542Q330 544 337 557T350
576Q369 593 386 604T416 626T437 647T445 674Q445 700 435 720T408 753T370 774T326 784H318Q302 784 289 780T271 762Q259 722 256 686T240 612Q239 608 231 583T209 518T179 432T145 337T112 248T82 178Q76 164 70 147T59 119Q56 111 53 108T46 103T39 96T34
82Q34 67 42 53T62 28T90 11T119 4Q124 4 128 4T137 6Q153 9 165 12T188 17T211 20T241 22H250H256Q266 22 299 24T375 32T465 47T551 68T617 97T643 135Q643 151 622 156Z" />
<glyph unicode="M" glyph-name="M" horiz-adv-x="1019" d="M1045 698Q1045 711 1043 725T1034 750T1015 768T982 775Q959 775 931 757T871 708T808 640T744 561T685 482T634 413T595 365T572 346H568L569 347V359Q569 363 575 390T591 456T612 540T633 625T649
696T656 735Q656 747 651 758T637 777T618 791T597 796Q578 796 544 770T465 701T373 606T279 501T195 404T132 329Q97 287 71 260T28 214T3 177T-5 138V133Q-4 113 4 95T26 63T58 41T100 32H105Q131 34 146 49T168 96L166 153V155Q166 176 179 211T215 278Q261
339 313 402T413 515T494 598T536 630Q539 630 541 624T543 614Q543 604 537 578T522 517T501 443T481 366T465 297T459 248Q459 225 476 205T522 184Q542 184 563 202T603 245T637 293T662 328Q683 354 703 382T744 438Q751 449 768 472T806 524T852 583T899 638T941
679T971 695H972Q976 695 976 686Q976 681 975 673T973 658Q971 642 962 610T937 534T904 440T866 340T828 244T794 162Q784 139 780 127T775 104Q775 82 789 71T814 59Q842 59 855 94Q880 165 906 229T952 353Q956 366 965 391T984 447T1005 514T1025 583T1039
647T1045 698Z" />
<glyph unicode="N" glyph-name="N" horiz-adv-x="785" d="M848 704V705Q848 711 843 719T829 735T809 748T784 754H782Q761 754 746 736T717 697Q716 695 709 681T690 645T666 600T643 554Q628 524 615 497T589 440T562 378T532 306Q530 301 525 291T515 269T505
248T500 238Q489 243 480 271T465 339T454 422T446 504T442 567T441 593Q438 625 436 647T431 686T425 714T417 736Q412 746 401 757T375 777T346 793T321 800Q302 800 276 785T233 731Q230 722 226 708T211 660T185 568T142 412Q128 359 117 319T98 247T82 189T68
138Q63 121 61 107T57 82V79Q57 69 62 59T77 40T98 26T126 20Q152 20 167 36T182 67Q182 77 180 85T177 102Q177 113 181 131T190 171T202 215T214 254T223 283T227 295Q227 298 233 320T248 371T265 424T277 458Q285 477 292 496T305 531T317 557T329 567H330Q337
563 343 537T355 475T366 403T377 341Q389 287 398 254T417 197T435 158T455 123Q466 106 480 94T514 82H521Q544 82 558 93T572 130V137Q572 150 581 178T604 240Q619 279 633 312T662 376T691 439T723 507Q733 528 747 553T774 601T799 640T813 659Q827 668 837
679T848 704Z" />
<glyph unicode="O" glyph-name="O" horiz-adv-x="618" d="M459 733Q459 754 450 767T428 788T398 797T368 800Q328 800 290 766T216 679T151 559T99 429T65 309T52 222Q52 207 53 189T57 153T65 118T81 89Q85 84 93 76T114 59T143 46T178 40Q193 40 210 42T249
52T296 75T351 114Q405 159 445 204T511 288Q539 329 557 361T586 417T604 457T614 484Q619 503 622 522T626 565V574Q626 588 623 614T604 667T557 713T469 733H459ZM225 451Q226 448 228 440T234 423T247 408T268 401Q272 401 279 403T294 410T306 423T312 443Q312
445 312 447T311 451Q311 476 325 503T358 552T392 590T411 609Q419 617 430 628T453 649T477 666T502 673Q516 673 529 667T549 645L552 639Q557 630 563 616T569 578Q569 551 555 512T522 434T483 362T451 313T427 284T402 256T373 226T338 193Q327 183 310 169T274
142T234 119T197 109Q192 109 184 111T169 119T156 137T150 171Q150 199 159 240T180 321T202 391T215 427T220 439T225 451ZM375 701Q367 696 353 684T320 651Q319 652 319 655Q319 658 328 675T362 704Q367 704 375 701Z" />
<glyph unicode="P" glyph-name="P" horiz-adv-x="610" d="M633 526Q637 541 637 559Q637 593 620 620T567 665L566 666Q566 667 574 671T591 683T608 703T616 732Q616 747 611 763T595 793T571 816T539 828Q503 828 486 814T459 781T445 749T428 734Q425 734 420
736T405 741T377 746T331 749Q303 749 264 742T188 719T127 675T101 606Q101 579 116 560T158 538H163Q180 538 190 550T202 578V582Q202 593 198 602T193 616V617Q196 636 209 649T241 671T280 683T314 687Q323 687 338 686T367 683T391 676T401 665V663Q399 654
390 635T367 592T340 546T316 507Q307 493 301 481T289 461T274 448T254 443Q247 443 242 444Q240 444 233 446T218 450T202 455T193 457Q191 457 189 457T184 458Q161 458 149 447T136 404V402Q136 384 151 375T183 361T216 350T231 333V331Q231 329 228 321T221
302T213 279T205 258Q194 223 184 188T173 119Q173 99 179 79T207 56H210Q220 56 232 63T247 78Q253 102 257 121T265 160T275 200T288 248Q292 261 297 277T310 308T330 334T360 350Q371 352 383 353T409 357Q448 365 485 383T553 424T605 473T633 526ZM537 550Q535
534 521 516T488 481T446 454T403 442H402Q398 442 398 447Q398 454 404 462Q403 460 409 470T425 497T447 532T469 567T488 595T500 606Q509 606 516 601T528 589T535 573T538 557Q538 555 538 554T537 550Z" />
<glyph unicode="Q" glyph-name="Q" horiz-adv-x="640" d="M595 100Q590 100 575 110T538 135T491 170T441 210Q458 227 474 247T504 288Q523 317 544 350T582 420T610 493T621 566Q621 583 620 599T614 631T598 662T569 695Q544 715 516 721T453 728Q452 730 452
735V742Q442 776 418 785T370 794Q349 794 331 786T296 766T267 739T245 711Q224 679 201 642T153 554T107 438T66 285Q58 242 58 203Q58 133 86 89T179 45Q212 45 242 56T299 84T348 120T387 156Q415 133 444 111T498 70T542 39T571 25Q583 22 598 22Q623 22 647
32T675 65V69Q675 81 669 86T652 94T627 97T595 100ZM232 293Q233 290 243 281T268 258T302 227T343 192Q330 181 309 166T265 136T219 111T183 99H179Q167 99 160 105T150 122T145 143T144 163V173Q144 198 149 227T161 283T175 334T188 371Q196 393 206 421T225
465Q228 457 231 448T238 429T249 414T266 408H269Q284 408 288 418T292 434V439Q292 452 300 469T319 503T338 530T348 544Q369 576 389 598T425 635T453 657T468 666Q481 676 490 677T504 679Q523 679 535 668T555 642T567 612T573 588V577Q573 551 565 523T545
467T520 415T496 374Q474 339 451 307T398 246Q377 263 360 280T326 320Q321 327 320 335T316 350T308 362T290 367Q280 367 269 361T249 346T234 327T228 308Q228 301 232 293ZM382 700Q355 683 321 646Q317 646 317 650Q317 661 325 671T343 689T361 701T371
706Q380 706 382 700Z" />
<glyph unicode="R" glyph-name="R" horiz-adv-x="682" d="M667 65V69Q667 80 661 85T644 94T619 98T587 100Q581 100 565 110T527 135T478 170T427 210T381 251T345 287Q340 293 326 308T298 342T273 377T262 404Q263 408 280 412T323 420T381 430T441 443Q465
449 497 457T557 478T606 513T626 565Q626 592 608 611T563 642T510 662T467 674Q464 677 464 677Q464 681 471 683T487 692T503 711T510 748Q510 772 498 789T469 817T439 833T421 839Q400 839 388 829T368 803T352 768T336 730Q327 710 317 705T291 700Q284 700
277 700T261 701H238Q228 701 205 700T157 696T112 690T89 682Q78 675 72 666T65 637Q65 620 76 613T97 605Q106 605 114 609T130 618T149 630T172 639Q194 645 217 647T263 649Q271 647 275 646T280 639V636Q280 631 271 611T248 566T219 516T193 475Q185 463
173 460T149 457H139Q130 457 123 456T109 450T100 436T96 409V406Q98 393 105 387T121 377T135 367T142 350L53 108V103Q53 89 62 76T86 60H88Q107 60 119 72T138 104T150 144T161 183Q164 192 169 211T181 250T195 285T210 300Q219 300 224 293Q229 289 252 269T309
220T382 158T458 97T522 48T563 25T590 22Q615 22 639 32T667 65ZM508 562Q506 550 493 540T461 522T418 508T373 497T333 490T307 485Q301 486 301 492Q311 509 322 530T344 571T368 604T395 617Q392 617 409 616T448 611T489 596T508 568V562Z" />
<glyph unicode="S" glyph-name="S" horiz-adv-x="610" d="M639 665Q630 711 595 739T494 772H486Q454 772 419 761T343 730Q332 724 303 707T241 661T185 593T160 503Q160 480 167 453T191 394Q201 373 220 346T258 291T290 238T304 194Q304 171 294 156T270 131T244
117T229 113Q219 113 212 116T196 124T177 133T152 137Q141 137 128 135T102 126T82 111T74 87Q74 66 87 55T119 39T154 32T179 31H181Q223 31 260 41T327 72T374 120T395 184V194Q395 223 382 253T351 317Q344 330 332 349T308 389T288 430T279 466Q279 495 298
519T341 562T388 591T421 604Q426 605 431 605T441 606Q455 606 466 598T490 580T518 562T554 553Q572 553 587 560T615 580T634 609T641 643Q641 648 641 654T639 665Z" />
<glyph unicode="T" glyph-name="T" horiz-adv-x="505" d="M792 712Q788 729 782 739T767 753T744 759T713 760Q682 760 655 758T603 753T554 748T506 746Q497 746 488 754T469 772T447 790T423 799Q406 799 397 793T380 778T368 758T354 738Q354 738 335 736T271
730Q264 730 249 729T223 728T210 727Q210 727 201 727T179 728T157 729T143 730Q130 728 122 723T113 701V696Q114 690 118 680T129 659T145 642T165 635H169Q203 645 226 650T265 659T294 662T321 663Q325 663 325 662Q320 648 317 642T309 626T297 602T277 557Q262
522 249 491T223 429T197 365T168 293Q164 282 154 256T133 200T114 145T105 113V112Q105 107 107 98T115 79T127 63T143 56H146Q171 56 183 76T208 141T243 255T311 421Q339 480 368 531T416 617Q428 640 443 658T480 678Q527 682 557 684T623 687Q669 687 707
685T772 681H774Q782 681 787 688T793 706Q793 708 793 709T792 712Z" />
<glyph unicode="U" glyph-name="U" horiz-adv-x="657" d="M645 657Q645 671 629 685T599 702Q585 702 575 689T557 658T543 622T532 592Q500 517 455 436T343 281Q303 238 273 209T221 161T190 136T179 128Q168 128 167 141V148Q167 173 177 212T201 295T230 377T256
441Q269 469 280 496T305 548T335 592T373 627Q391 639 402 647T419 663T428 677T431 694Q431 716 421 735T396 769T360 792T318 801H310Q298 800 290 791T277 769T268 744T263 725Q261 714 250 693T223 626Q214 599 204 570T180 504T152 422T118 319Q107 287 99
255T84 197T75 154T70 134Q69 130 68 124T66 109Q66 95 75 81T99 54T133 35T171 27H174Q190 28 209 41T248 72T287 112T324 151T356 181T380 193Q386 176 391 161T403 132T421 105T452 79Q461 72 474 68T498 64H502Q513 64 520 79T527 114Q527 136 517 154T483
173H477H475Q466 173 466 196Q466 235 482 284T520 382T565 474T602 544Q606 551 613 565T627 597T639 630T645 656V657Z" />
<glyph unicode="V" glyph-name="V" horiz-adv-x="753" d="M535 244Q541 252 555 277T587 335T626 404T666 470T701 519T725 539Q744 512 754 504T779 494H781Q797 494 799 514Q798 521 788 543T774 612V619Q774 637 776 658T782 697Q782 702 785 705T789 713Q789
722 782 729T765 741T745 748T727 751Q725 751 723 751T719 750Q716 734 702 704T668 638T626 564T583 492T548 434T529 401Q515 372 500 343T467 278L451 255L419 228Q408 216 397 207T376 197Q369 197 365 203H360Q362 212 362 217T363 228T365 239T369 257L385
298Q400 365 423 432T471 557T522 655T569 712Q581 720 585 726T589 739Q589 749 582 760T562 781T533 797T500 804Q486 804 472 790T446 757T424 720T408 695Q349 628 289 565T172 437Q153 415 134 399T100 367T75 336T65 302Q65 280 88 260T163 239H167Q181 239
192 250T203 285V300Q203 320 216 339T246 372Q266 388 282 406T318 441L241 136Q241 118 242 98T250 62T271 35T312 24H316Q327 25 333 25Q339 25 347 33Q374 58 396 80T439 125T480 173T522 230L535 244Z" />
<glyph unicode="W" glyph-name="W" horiz-adv-x="879" d="M871 504Q882 496 889 492T904 488Q914 488 921 491T928 506V511Q927 515 920 525T905 553T890 600T883 669V691Q883 696 885 698T887 705V706Q884 722 865 728T830 735Q825 735 820 734T812 732Q811 683
804 639T785 553T762 470T738 387Q730 357 722 325T704 262T680 208T651 168Q645 168 643 172T641 190V197L655 453Q654 462 654 470T650 485T639 496T615 501Q604 501 596 497T580 492H576H574Q571 489 565 478T552 455T537 434T526 424L527 427Q522 420 518 414T509
401Q486 370 471 345T442 296T410 250T365 203H360Q394 361 430 462T497 614Q507 631 522 652T553 692T578 724T589 739Q589 749 582 760T562 781T533 797T500 804Q486 804 472 790T446 757T424 720T408 695Q349 628 289 565T172 437Q153 415 134 399T100 367T75
336T65 302Q65 280 88 260T163 239H167Q181 239 192 250T203 285V300Q203 320 216 339T246 372Q266 388 282 406T318 441L241 136Q241 118 242 98T250 62T271 35T312 24H316Q327 25 333 25Q339 25 347 33Q374 58 393 84T429 138T464 193T507 252Q510 255 516 264T530
283T544 300T555 308Q558 308 558 306L560 184Q560 178 567 162T588 129T621 99T664 86H666Q690 86 708 102T738 140T759 184T773 221Q800 296 814 370T846 522Q847 524 851 524Q857 518 861 513T871 504Z" />
<glyph unicode="X" glyph-name="X" horiz-adv-x="650" d="M766 811Q766 824 750 824Q716 822 689 804T629 762Q588 734 550 707T482 659T431 624T406 611Q401 611 401 621V626Q401 629 404 649T408 690Q407 709 400 727T381 758T351 780T311 789H304Q269 789 248
765T227 712Q227 703 229 694T233 677T236 665T238 660Q244 649 250 640T262 622Q280 596 290 568T300 520Q300 515 287 499T256 464T220 425T192 395Q178 378 166 365T143 339T122 313T102 284Q94 271 83 254T62 218T45 181T38 147V146Q38 136 42 124T55 101T75
83T105 76H107Q120 77 136 91T153 126V127Q153 132 148 143T143 159Q143 177 151 196T169 234T191 267T207 290Q227 321 259 360T328 435Q328 435 328 435T330 436Q337 436 345 413T362 358T377 295T387 248Q391 225 393 198T401 146T418 105T452 88Q465 88 473
96T486 116T493 141T495 166Q494 206 490 240T480 308T465 373T445 440Q443 447 441 456T436 473T432 488T430 498V499Q430 511 436 522T453 542T473 559T491 573Q523 596 546 613T589 645T631 676T682 714Q689 719 703 730T731 754T755 783T766 810V811ZM235 667Q236
664 238 660Q238 660 238 661T235 667Z" />
<glyph unicode="Y" glyph-name="Y" horiz-adv-x="575" d="M635 655V697Q623 719 608 729T576 739Q557 739 547 732T528 712T513 684T493 652Q472 624 452 603T412 563T375 527T339 492Q329 483 317 471T300 458Q292 458 288 474T282 510T280 551T279 579Q279 604
282 621T289 652T296 680T300 711Q300 733 291 752T266 787T232 811T191 820Q156 820 135 798T113 740Q113 723 120 704T133 664Q150 603 158 535T182 401Q185 388 190 370T196 347Q196 345 194 328T188 287T179 239T169 194Q162 165 149 138T134 97Q134 65 152
53T191 40Q205 40 214 47T228 64T237 88T245 113Q252 132 256 149T266 186Q271 202 275 225T284 259Q288 267 294 271T307 281T319 293T324 313Q324 322 323 329T322 343Q322 349 327 359T342 382T362 407T384 430Q405 450 423 468T460 503T498 539T538 578Q541
581 545 586T555 597T566 608T577 616Q585 621 596 625T617 637Q622 641 626 646T635 655Z" />
<glyph unicode="Z" glyph-name="Z" horiz-adv-x="636" d="M675 635V636Q675 645 671 658T660 683T642 705T620 715L539 719Q532 719 524 719T507 720Q465 720 407 716T290 705T184 688T113 665Q105 660 104 648T102 627V626Q102 608 113 590T142 556T178 531T213
520H215Q240 520 248 535T261 568Q281 588 306 600T359 618T414 626T466 628Q482 628 495 628T518 627Q556 627 556 616Q556 614 553 611Q528 586 494 553T422 484T347 415T279 353T228 308T205 288Q175 259 141 230T78 175T30 128T9 94Q8 90 8 86Q8 83 8 80Q8
53 24 39T80 23Q84 23 103 24T147 28T200 33T248 40Q253 41 277 43T332 49T393 54T443 57Q449 57 464 55T495 52Q509 52 518 56T529 71V74Q529 90 518 100T492 115T461 123T435 125H427Q418 125 404 125T373 124T339 122T308 120Q264 117 219 106T125 95H123Q110
96 110 104Q110 106 112 108Q158 146 202 185T296 266Q344 307 397 351T508 444Q524 458 552 482T606 533T653 587T675 635Z" />
<glyph unicode="[" glyph-name="bracketleft" horiz-adv-x="498" d="M354 786Q345 786 336 785T315 784Q300 784 285 789T255 795H242Q225 795 210 792T182 782T161 764T152 735V733Q152 715 160 697T168 672Q168 640 165 603T152 512Q150 500 143 465T125 382T102
281T80 183T63 106T56 68Q54 35 41 10T12 -36T-16 -80T-29 -131Q-29 -166 -8 -180T52 -195Q69 -195 108 -190T196 -178T297 -161T393 -143T466 -130T498 -123Q505 -120 511 -111T517 -94Q517 -71 495 -59T447 -47Q405 -47 365 -53T288 -64Q253 -67 229 -69T192
-72H187Q172 -71 164 -67T156 -42Q156 -35 161 -7T176 63T199 159T225 268T253 379T279 482T301 564T317 616Q325 636 329 641T341 647Q345 647 349 647T362 646Q373 646 386 640T411 628T435 615T455 609Q480 609 500 618T535 643T558 677T566 717Q566 753 543
770T470 787Q449 787 434 787Q419 787 406 787T381 786Q369 786 354 786Z" />
<glyph unicode="\" glyph-name="backslash" horiz-adv-x="535" d="M459 -38Q458 -19 447 36T418 167T377 331T331 504T284 663T242 786Q231 816 212 831T156 846Q144 846 127 840T94 820T66 787T54 741Q54 723 60 702Q103 661 142 607T213 492T270 370T311 250Q314
239 318 224T326 191T336 157T345 125Q347 117 352 100T362 63T370 22T374 -14Q374 -31 367 -43T360 -67Q360 -78 365 -86T377 -99T392 -106T407 -109Q413 -109 417 -107Q443 -93 451 -81T459 -45V-38Z" />
<glyph unicode="]" glyph-name="bracketright" horiz-adv-x="560" d="M178 778Q172 778 166 773T154 760T144 744T140 730Q140 709 150 692T176 662T210 642T246 634Q249 634 258 636T277 642T297 647T309 650Q316 650 319 642T322 626V622Q316 596 308 554T291
461T271 354T252 243T234 139T219 51Q216 33 209 5T191 -49T162 -93T122 -112Q105 -112 87 -109T48 -105Q24 -105 10 -120T-4 -146Q-4 -164 16 -175T54 -186Q65 -186 85 -184T129 -180T175 -176T212 -174Q227 -174 241 -154T267 -101T292 -24T314 66T334 160T350
247T363 319T371 364Q381 410 390 460T416 554Q425 578 439 605T467 657T491 698T501 720Q501 738 494 751T474 774T445 789T411 794Q408 794 382 792T321 787T247 782T178 778Z" />
<glyph unicode="^" glyph-name="asciicircum" horiz-adv-x="279" d="M276 748Q253 732 223 716T170 688Q158 684 143 677T114 660T92 637T83 610Q83 598 89 584T104 559T127 539T154 531Q173 531 192 551T230 594T264 638T295 658H297Q301 657 308 641T325 606T346
569T368 550H371Q382 550 392 561T402 584Q402 598 394 615T385 657Q385 669 387 691T401 742Q394 749 390 758T381 775T367 789T344 795Q333 795 325 791T309 779T294 764T276 748Z" />
<glyph unicode="_" glyph-name="underscore" horiz-adv-x="497" d="M335 -23Q315 -25 275 -26T190 -27Q150 -27 119 -25T64 -22Q39 -22 29 -38T18 -68Q18 -71 22 -78T34 -92T49 -104T65 -110H68Q78 -108 87 -102T108 -94Q131 -90 158 -89T213 -87Q246 -87 278
-88T340 -89Q352 -89 363 -89Q374 -89 384 -88H389Q408 -88 420 -94T450 -101Q459 -101 470 -90T482 -62Q482 -55 478 -46T467 -29T450 -16T426 -10Q423 -10 412 -12T388 -16T360 -20T335 -23Z" />
<glyph unicode="`" glyph-name="grave" horiz-adv-x="500" d="M380 460Q371 480 359 505T334 560T314 623T306 693V711Q311 716 317 723T324 747Q324 754 320 762T307 778T289 791T267 797Q249 797 234 781T219 747Q219 745 219 744T220 742Q226 725 226 717T228
700T235 675T254 628Q281 570 300 534T332 477T355 449T372 441Q383 441 383 450Q383 454 380 460Z" />
<glyph unicode="a" glyph-name="a" horiz-adv-x="482" d="M471 191Q424 146 386 124T309 101Q300 106 297 118T293 145Q293 162 302 189T327 242L336 256Q345 270 350 277T365 291L378 299Q399 313 403 321T408 341Q408 366 387 387T337 408Q318 408 309 400T296
381T289 363T280 354Q277 354 275 357T270 364L266 368L262 371Q254 377 242 384T212 392Q188 392 162 380T122 354Q117 348 114 348Q104 359 91 359Q77 359 65 346T43 314T26 274T15 238Q13 229 11 216T8 190T5 165T4 147Q4 121 20 100T72 78Q95 78 118 87T159
108T191 129T206 139Q213 139 217 123T230 87T256 51T308 35Q329 35 350 43T391 63T431 92T469 123Q499 150 517 166T544 192T557 206T560 214Q560 216 560 217T559 222Q559 228 555 234T542 240Q535 240 525 235T505 221T485 205T471 191ZM114 213V214Q114 222
117 233T125 254T135 274T147 288L152 292Q160 298 176 310T213 322Q230 322 236 308T242 285Q242 266 229 246T198 206T159 172T124 149Q113 144 101 140T80 135Q72 135 67 140T61 154Q61 168 70 175Q77 171 82 169T95 166Q109 166 112 173T116 188Q116 192 116
195T115 202L114 213Z" />
<glyph unicode="b" glyph-name="b" horiz-adv-x="310" d="M370 716Q368 729 361 740T342 761T317 775T290 780H283Q269 779 252 754T216 692T180 612T150 533T128 471T119 445Q107 404 94 361T71 278T53 204T46 148V146Q47 120 64 100T108 80H115Q144 84 173 113T231
183H238Q252 183 260 190T269 206Q269 215 258 220Q272 246 282 266T300 302T312 332T316 363Q316 394 299 409T259 424H252Q230 422 211 405T176 363T153 311T144 263Q144 247 148 236T156 217T165 205T169 200V199Q169 193 164 186T151 172T136 162T124 157Q115
157 115 165V173Q115 190 120 216T135 272T154 333T175 390T192 436T203 462Q215 486 225 511T246 560T272 606T307 649Q314 656 325 660T346 668T363 680T371 701Q371 704 371 707Q371 711 370 716ZM233 297V295Q233 290 229 281T218 263T207 247T201 240Q198
243 198 251Q198 256 199 258Q199 259 200 265T204 278T211 292T223 302H227Q232 302 233 297Z" />
<glyph unicode="c" glyph-name="c" horiz-adv-x="286" d="M355 190Q366 201 369 209T372 222Q372 228 368 233T355 239Q348 239 341 234T321 218L304 203Q294 195 281 183T251 159L238 150Q212 133 194 121T160 102T133 92T107 89Q98 89 89 98T80 136Q80 161 87
185T106 230T135 270T169 301Q171 301 173 301T178 300Q204 300 223 316T242 355Q242 370 235 384T217 408T193 425T168 432Q143 432 115 404T62 332T22 236T6 137Q6 117 9 98T20 64T41 40T76 31Q89 31 109 35T149 47Q155 49 174 58T221 84T283 127T355 190Z" />
<glyph unicode="d" glyph-name="d" horiz-adv-x="494" d="M567 755Q565 764 557 774T535 785H531Q515 783 501 770T473 737T446 694T419 648Q408 631 399 616T382 588T364 561T343 532Q343 532 337 526T322 512T306 498T295 491L268 488Q253 486 239 469T212 431T193
394T184 377H182Q177 377 172 379T162 381Q146 379 135 370T114 348T96 317T78 284Q61 253 52 223T42 167Q42 122 63 100T113 77H122Q149 80 173 96T217 130T249 163T266 178H267Q270 178 270 171Q270 163 268 150T266 122Q266 110 269 98T280 75T302 58T341 50H343Q361
50 389 63T449 97T511 143T562 192Q567 197 572 206T577 223Q577 228 573 234T561 241Q551 241 540 234T522 220Q510 209 501 201T485 187T470 175T453 162Q449 159 435 151T403 133T370 117T346 110Q334 110 330 120T326 144Q326 160 332 191T348 260T371 341T396
421T420 491T440 539Q454 568 464 589T489 640Q491 645 497 657T511 679Q518 692 528 701T547 717T562 731T568 749Q568 751 568 752T567 755ZM287 357V355Q287 345 279 327T257 288T228 245T195 204T163 174T138 161H135Q127 161 125 165T121 174V175Q121 183
128 197T143 227T159 253T168 266Q183 279 198 296T214 333Q217 344 232 353T268 366Q273 366 279 365T287 357ZM375 531Q373 525 369 514T359 492T350 473T344 464Q343 466 337 470T330 478Q330 479 336 488T350 507T365 525T374 533Q375 533 375 532Q375 531
375 531Z" />
<glyph unicode="e" glyph-name="e" horiz-adv-x="308" d="M290 185Q257 158 227 142T174 118T136 107T122 104Q111 104 102 112T92 154Q92 162 93 167T98 179T110 192T134 211L146 220L161 232Q171 239 189 253T226 286T257 325T271 365Q271 388 252 401T204 414Q190
414 170 409T122 386Q117 383 106 374T80 348T53 308T32 254Q26 232 24 217T3 196Q0 188 0 180Q0 171 5 166T18 160Q20 160 20 160T23 161V159Q23 140 26 120T39 82T66 53T112 42Q139 42 174 56T241 90T299 126T330 148Q332 149 341 157T360 177T379 200T387 220Q387
227 383 233T370 239Q359 239 345 231T319 212T298 193T290 185ZM220 348Q220 337 211 327T191 307T168 291T151 280L136 270Q121 259 117 257T107 253Q114 271 125 290T148 325T175 352T204 363Q215 363 217 358T220 348Z" />
<glyph unicode="f" glyph-name="f" horiz-adv-x="250" d="M430 678Q430 694 422 712T399 745T366 771T327 781Q305 781 283 755T241 688T202 601T171 513T149 444T140 412Q135 399 117 397T84 394H74Q58 394 44 397T17 401Q9 401 1 398T-8 382V380Q-7 376 3 362T25
323T48 265T63 189V179Q63 158 60 137T50 87T35 23T13 -66Q12 -69 12 -74Q12 -83 21 -91T41 -100Q52 -100 60 -85T75 -48T86 -4T96 34Q105 68 115 106T134 181T153 253T168 314Q173 327 179 335T195 348T220 355T261 357H268Q295 355 310 351T339 344H341Q346 344
353 347T360 358Q360 368 355 377T341 393T322 404T301 409Q300 409 289 408T263 407T237 405T224 404H217Q211 404 205 405T198 413Q198 417 202 432T214 467T231 511T250 558T268 600T282 630Q286 639 292 648T306 666T323 680T343 686H346Q355 686 359 681T368
668T380 656T401 650Q409 650 419 656T430 678ZM114 330Q114 331 112 321T106 298T98 274T92 263Q89 263 86 271T79 289T73 308T69 321V328Q69 334 74 339T94 344Q99 344 102 343T106 341H108Q115 341 115 334Q115 333 115 333T114 330Z" />
<glyph unicode="g" glyph-name="g" horiz-adv-x="314" d="M382 238Q377 241 373 241Q366 241 351 231T318 207T285 180T259 160Q252 155 245 150T235 144H234Q231 144 231 149Q231 157 233 165T240 183Q249 209 258 228T278 265T298 299T320 338Q321 339 322 350T324
363Q324 390 307 413T257 436Q245 436 232 427T206 405T184 380T173 364Q165 371 156 378T125 386Q110 386 95 369T67 327T48 276T39 233V228Q39 193 58 176T105 159Q115 159 129 164T152 173T162 178Q166 178 167 173T168 160V147Q168 132 166 121T157 99T141
77T115 53Q95 35 74 17T36 -24T7 -79T-5 -155Q-5 -177 7 -198T41 -219H42Q54 -219 69 -201T100 -156T132 -95T162 -31Q180 8 192 28T217 61T247 87T292 123Q307 135 324 148T355 175T380 200T390 223Q390 231 382 238ZM196 272Q193 267 185 259T167 244T144 231T120
225H116Q105 227 105 239V241Q106 256 118 265T143 282T168 297T181 314Q191 309 194 301T198 284Q198 278 196 272ZM117 -2Q88 -67 75 -67Q68 -67 68 -57Q68 -49 74 -41T88 -26T104 -13T117 -2Z" />
<glyph unicode="h" glyph-name="h" horiz-adv-x="481" d="M559 236Q554 239 549 239Q539 239 529 233T511 220Q475 190 452 174T412 150T384 139T362 136H360Q354 136 354 142Q354 147 362 173T381 230T401 289T411 326V331Q411 343 403 352T379 361Q372 361 369
360Q362 359 348 347T315 316T276 278T239 239T209 209T192 194Q191 193 189 193Q187 193 187 196V198Q188 204 195 222T213 264T237 316T262 372T284 422T300 461Q325 494 344 528T377 595T398 653T406 698Q406 724 395 738T364 752Q360 752 352 750Q342 746 331
726T308 676T285 612T265 547T248 493T238 461Q232 446 230 440T225 430T218 422T206 405Q192 385 166 355T113 296T65 245T40 218Q35 213 35 206Q35 198 41 192T58 186Q68 186 92 206T149 258Q151 259 153 259Q156 259 157 257T158 255Q158 253 149 238T127 204T106
164T96 134V133Q98 117 110 104T137 91H140Q158 94 172 101T198 119T221 142T244 166Q254 175 267 187T291 210T311 228T320 236Q323 236 323 233Q323 233 321 227Q321 225 318 216T310 193T303 165T300 138V134Q302 111 316 96T356 81H360Q388 83 418 96T472 127Q486
137 502 150T533 175T556 200T566 222Q566 230 559 236Z" />
<glyph unicode="i" glyph-name="i" horiz-adv-x="192" d="M174 348Q174 349 174 350T175 352Q175 367 163 377T135 395T108 405T95 408H96Q82 408 78 399T73 378Q73 364 76 354V353Q76 352 71 337T57 294T37 230T14 150V147Q14 139 18 131T29 116T44 103T58 97H63Q70
97 79 99T95 106T108 115T115 127V129Q115 135 111 141T107 158V164Q114 208 124 236T143 283T161 316T174 348ZM217 474V476Q217 482 213 488T204 500T195 511T191 521V522Q192 525 194 526T198 530V531Q198 536 194 545T183 565T168 582T153 591H150Q145 591
139 586T126 574T116 557T112 540Q112 526 118 512T135 486T159 466T184 455H186Q192 455 203 460T217 474Z" />
<glyph unicode="j" glyph-name="j" horiz-adv-x="163" d="M240 238Q237 241 231 241Q221 241 211 234T193 220Q158 188 131 165T68 131Q66 130 64 130Q60 130 60 136V138Q60 157 66 175T80 213T98 254T116 298Q117 302 121 304T129 308T136 312T141 321V326Q141
339 135 351T120 372T99 388T76 394H75Q63 394 58 385T50 363T48 339T48 323Q45 300 40 276T29 228T18 186T9 157Q6 148 2 134T-6 106T-14 80T-21 62Q-26 54 -38 45T-58 29Q-79 11 -99 -5T-135 -44T-162 -96T-172 -170Q-172 -180 -169 -191T-160 -211T-146 -227T-126
-233H-124Q-114 -233 -101 -219T-73 -182T-45 -134T-19 -83T1 -41T11 -15Q17 2 28 16T52 42T79 63T104 82Q107 85 130 101T179 139T226 183T248 223Q248 231 240 238ZM197 483V486Q197 497 189 508T180 530V534Q180 535 180 535T181 538Q181 548 171 562T139 580H137Q122
580 107 566T91 533Q91 521 98 509T116 487T141 471T167 464Q175 464 185 469T197 483ZM-46 -28Q-53 -46 -62 -60T-79 -83T-93 -98T-100 -103Q-106 -103 -106 -94Q-106 -86 -99 -77T-81 -58T-61 -41T-46 -28Z" />
<glyph unicode="k" glyph-name="k" horiz-adv-x="460" d="M539 238Q533 243 526 243Q516 243 501 230Q486 218 476 209T458 192T441 177T421 162Q407 152 395 145T366 137Q350 137 337 143T312 154Q304 157 285 169T246 197T211 231T195 266Q195 287 213 306T255
342T307 372T352 396Q361 401 372 403T392 406T409 411T416 423Q416 433 406 444T384 455H381Q379 455 361 446T320 424T274 399T242 382Q240 384 240 387Q251 417 257 433T269 464T281 495T299 540Q302 549 310 566T331 601T358 632T388 646Q389 646 394 645T405
644T416 642T422 641Q443 641 455 648T468 682Q468 701 457 721T430 759T392 787T352 798Q338 798 329 783Q301 734 281 685T241 583T202 473T154 352Q146 334 132 325T104 310T79 300T68 287Q68 281 73 271T84 252T96 237T101 229Q101 224 95 208T77 176Q72 165
66 160T57 146V142Q57 133 61 124T73 108T89 95T109 90Q113 90 118 90T129 93T139 99T143 112Q143 120 142 129T140 144Q140 146 142 153T148 167T156 179T165 185Q174 184 193 168T236 132T289 96T344 79Q396 79 454 128Q467 139 483 153T513 182T537 207T547
225Q547 233 539 238Z" />
<glyph unicode="l" glyph-name="l" horiz-adv-x="348" d="M422 230Q419 233 413 233Q403 233 392 226T374 212Q352 192 324 169T267 125T216 92T182 78Q171 78 167 82T161 97Q163 114 170 142T196 218Q205 240 218 273T245 343T272 414T293 472Q320 501 343 538T385
612T413 681T423 733Q423 756 410 770T368 784Q355 784 342 767T316 722T291 661T269 595T250 537T238 497Q232 480 229 472T225 459T221 451T214 442Q198 419 170 384T113 314T61 252T32 218Q27 211 27 206Q27 198 34 192T51 186Q56 186 67 195T92 216T117 240T135
258H136Q138 258 138 255Q138 246 131 225T114 178T98 125T90 78V76Q90 70 92 61T100 42T115 25T140 17H143Q164 17 188 27T237 51T283 80T320 107Q339 121 358 137T394 169T421 196T432 214Q432 223 422 230Z" />
<glyph unicode="m" glyph-name="m" horiz-adv-x="659" d="M742 238Q737 241 733 241Q723 241 712 234T694 220Q649 178 618 155T572 132Q565 132 565 139Q565 143 566 146Q568 152 574 176T588 231T601 289T607 330Q607 344 597 352T574 360Q560 360 543 345T508
313T475 280T453 265H449V270Q449 271 452 280T458 301T464 321T467 332Q467 346 457 354T435 362Q421 362 401 346T362 310T327 274T308 257Q303 257 302 266Q302 270 308 283T321 313T334 349T340 387Q340 409 327 425T291 442Q276 442 263 439T235 427T202 401T156
354Q132 329 109 304T68 258T39 223T28 206Q28 198 34 192T50 185Q55 185 68 194T97 219T132 252T167 286T196 315T214 333Q234 349 248 355T270 362Q274 362 274 354Q274 349 273 341T266 318Q260 301 244 273T211 215T180 159T166 122Q166 109 179 100T203 90Q212
90 227 102T260 134T298 174T334 215T365 246T384 259Q387 259 387 254Q387 246 382 237T370 217T358 197T352 178Q352 167 361 159T382 150Q391 150 416 171T469 217T519 264T545 285H547Q547 285 547 285T547 284V278Q547 270 541 249T527 202T513 153T507 119Q507
100 520 86T553 72Q579 72 606 89T659 126Q675 137 691 150T720 177T741 203T749 224Q749 232 742 238Z" />
<glyph unicode="n" glyph-name="n" horiz-adv-x="568" d="M652 238Q647 241 643 241Q633 241 622 234T604 220Q580 198 553 176T501 137T454 109T423 98Q403 98 403 113V117Q403 124 410 141T426 180T447 229T469 280T485 328T492 365Q492 386 478 393T448 400H440Q436
400 424 389T395 361T360 324T325 288T298 260T284 248Q282 248 282 249Q282 250 281 250Q284 260 288 274T295 305T300 336T303 364Q303 384 287 395T247 406H239Q227 405 209 393T171 363T131 322T92 280T60 242T40 218Q35 213 35 206Q35 198 41 193T58 187Q64
187 78 197T110 222T146 254T177 286Q179 289 183 294T193 305T203 315T211 319Q213 319 213 316T214 310V306Q214 294 206 273T188 228T170 183T161 150Q161 143 162 134T168 117T180 103T199 97Q210 97 221 104T250 125L367 242Q369 244 372 244Q375 244 375
241Q375 243 368 225T353 181T338 128T331 86V84Q331 78 332 69T336 51T348 36T372 30Q396 30 423 40T477 64T528 95T570 126Q584 137 599 150T628 176T651 201T660 223Q660 233 652 238Z" />
<glyph unicode="o" glyph-name="o" horiz-adv-x="335" d="M254 338Q247 339 243 349T233 370T214 391T178 400Q154 400 131 384T89 343T56 292T33 243Q25 223 18 192T11 137Q11 94 35 69T91 43Q122 43 151 57T202 89T239 122T256 140Q277 166 294 199T311 259Q311
276 306 288T295 308T282 320T271 328Q262 336 260 336T254 338ZM253 222Q242 198 225 174T188 132T146 101T105 89Q88 89 82 98T76 125Q76 146 83 170T102 217T127 260T153 297H158V292Q158 271 156 264T154 256Q154 251 156 243T163 234H165H167Q171 234 176
237T190 249L211 270Q215 274 222 281T244 288Q250 288 257 283T265 262Q265 257 264 252T261 242L253 222Z" />
<glyph unicode="p" glyph-name="p" horiz-adv-x="330" d="M324 287Q324 313 308 334T267 355Q256 355 248 353T226 342Q216 335 203 324T179 303T158 286T148 278Q146 278 145 280V285Q145 288 147 293T152 303Q161 327 173 341T195 368T212 392T219 422Q219 436
212 447T194 467T170 480T145 485Q133 485 127 478T118 459T112 433T106 405Q92 354 73 297T25 162Q18 144 5 103T-24 16T-53 -71T-74 -130Q-79 -141 -82 -159T-86 -182V-183Q-86 -192 -77 -205T-50 -218H-47Q-39 -217 -35 -212T-29 -200T-26 -186T-23 -174Q-21
-159 -17 -146T-7 -119Q16 -57 29 -21T52 41T75 88T111 139Q112 140 116 136T127 127T141 116T155 107Q163 104 170 103T185 102Q209 102 233 117T278 157T311 215T324 287ZM252 256Q252 253 248 241T237 216T220 191T198 179H197Q189 179 186 184T171 190Q168
190 164 188T158 186Q156 186 156 188Q156 191 159 195T166 203Q169 206 179 216T201 237T226 257T246 266H247Q252 266 252 256Z" />
<glyph unicode="q" glyph-name="q" horiz-adv-x="310" d="M330 363Q330 390 313 413T263 436Q251 436 238 427T212 405T190 380T179 364Q171 371 162 378T131 386Q116 386 101 369T73 327T54 276T45 233V228Q45 193 64 176T111 159Q121 159 135 164T158 173T168
178Q168 178 168 178T169 176Q169 170 163 149T148 99T127 35T105 -30T85 -88T70 -126Q65 -137 63 -152T60 -180V-186Q60 -190 63 -196T73 -209T86 -219T103 -224H106Q114 -223 126 -214T151 -193T176 -167T196 -144Q209 -129 225 -115T256 -89T279 -65T289 -45Q289
-41 285 -34T272 -27Q261 -27 247 -37T216 -62T183 -91T152 -116Q148 -118 146 -118Q141 -118 141 -112Q141 -111 141 -110T142 -108Q161 -56 175 -15T201 60T223 126T246 193Q256 223 266 241T285 274T305 302T326 338Q327 339 328 350T330 363ZM202 272Q199 267
191 259T173 244T150 231T126 225H122Q111 227 111 239V241Q112 256 124 265T149 282T174 297T187 314Q197 309 200 301T204 284Q204 278 202 272Z" />
<glyph unicode="r" glyph-name="r" horiz-adv-x="502" d="M562 329Q551 337 543 337Q536 337 531 334T520 328T508 322T495 319Q487 319 482 333T468 364T449 396T417 410Q409 410 397 399T371 374T346 349T324 337Q317 349 309 362T291 386T270 404T246 411Q226
411 204 389T153 337Q130 313 108 291T69 250T41 220T30 204Q30 196 36 191T53 185Q59 185 71 193T99 215T132 244T163 274T189 300T204 316Q219 330 229 333T247 336Q253 336 257 326T262 305V302Q259 276 248 255T223 217T200 186T189 158Q189 150 192 140T202
120T218 105T238 98Q251 98 258 104T269 120T275 138T281 154Q285 165 292 175T305 194Q309 194 323 211T353 249T387 287T415 305Q416 305 424 296T442 276T459 257T467 248Q470 246 476 246Q486 246 497 252T520 266T540 282T552 294Q559 302 563 308T567 319Q567
324 562 329Z" />
<glyph unicode="s" glyph-name="s" horiz-adv-x="291" d="M291 316Q291 334 279 351T251 381T216 403T184 411Q158 411 140 396T112 360T97 315T92 274Q92 243 98 212T104 162V159Q104 148 103 135T99 110T89 90T70 82Q52 82 39 90T16 98Q8 98 2 93T-4 77Q-4 62
5 49T27 25T57 8T88 2Q119 2 138 22T169 70T183 130T187 182Q187 185 186 197T185 225Q185 236 186 247T189 268T197 284T210 290Q213 290 218 287T227 282Q234 279 242 279T252 278Q266 278 278 288T291 316Z" />
<glyph unicode="t" glyph-name="t" horiz-adv-x="321" d="M397 234Q393 238 387 238Q375 238 361 230T332 209T305 185T281 165T252 145T210 119T164 97T124 87Q117 87 113 91T108 110V117Q110 132 117 162T138 222Q155 263 166 289T190 329T218 349T261 355H273Q299
354 311 354Q324 354 335 354Q340 354 348 356T356 367Q356 376 351 385T336 401T317 412T298 417Q295 417 287 416T269 413T251 410T241 409Q231 409 231 418Q231 422 235 430Q245 451 256 462T278 484T295 504T303 534V538Q303 551 297 562T280 582T257 596T233
602H230Q215 602 209 595T199 577T195 550T189 520Q187 514 182 496T170 457T154 421T134 402Q128 401 109 401T71 399T36 394T20 384Q20 381 21 379Q21 365 27 357T43 346T61 341T78 340H82Q89 340 93 340T103 341H108Q112 341 112 337V336Q101 309 92 288T75
250Q71 240 64 219T48 174T34 126T27 87V83Q27 68 34 57T52 38T78 28T107 24Q137 24 173 40T242 78T302 119T338 147Q347 154 358 163T380 182T397 202T404 221Q404 228 397 234Z" />
<glyph unicode="u" glyph-name="u" horiz-adv-x="463" d="M547 241Q545 243 539 243Q529 243 518 235T500 220Q481 200 455 179T404 140T358 111T329 98H328Q317 98 313 109T308 131Q308 137 314 153T329 192T350 241T370 292T386 338T392 373Q392 393 378 399T349
405H345Q342 405 332 396T313 367Q310 362 308 353T304 334T300 315T295 302Q287 279 270 260T233 227T198 206T178 198Q168 198 168 216Q168 241 179 266T205 312T231 348T244 371V378Q244 388 240 399T230 420T213 436T191 443Q173 443 162 431T145 402T134 365T125
333Q117 311 109 278T95 214T84 162T80 141Q80 135 84 127T94 111T107 98T123 93Q138 93 160 108T203 140T240 173T260 188Q261 188 261 186V185Q260 182 257 172T249 149T241 120T237 91Q237 86 238 75T245 52T259 32T282 23H286Q310 25 339 40T395 73T444 109T475
135Q508 162 532 185T556 226Q556 235 547 241Z" />
<glyph unicode="v" glyph-name="v" horiz-adv-x="533" d="M690 362Q687 373 672 373Q663 373 649 368T616 355T576 343T533 337Q513 337 496 344T467 368Q467 369 468 375T470 388T473 402T475 412Q475 418 471 425T461 438T447 448T431 452Q414 452 411 440T404
410Q399 383 391 361T372 320T349 285T325 253Q314 238 293 217T242 165Q239 162 237 162Q234 162 234 166V168Q235 172 238 177T247 194T264 227T290 285Q297 299 300 316T304 347Q304 353 300 363T288 382T269 399T245 406H242Q211 401 194 387T158 353Q135 327
112 302T71 257T42 222T30 205Q30 197 36 192T53 186Q61 186 75 196T105 221T137 253T169 285T195 310T212 320H213Q217 320 217 313Q217 308 216 306Q206 285 194 254T172 193T154 141T146 116Q146 113 149 104T158 84T175 66T199 58Q205 58 216 67T240 88T265
113T286 134Q326 171 356 202T410 271Q420 285 425 293T438 302Q444 302 451 296T468 283T490 270T520 262H521Q530 262 544 265T575 274T608 286T636 297Q651 303 661 307T678 316T688 328T692 348Q692 352 692 355T690 362Z" />
<glyph unicode="w" glyph-name="w" horiz-adv-x="736" d="M903 362Q900 373 884 373Q875 373 861 368T828 355T788 343T745 337Q725 337 708 344T679 368Q679 369 680 375T682 388T685 402T687 412Q687 425 673 438T643 452Q627 452 624 440T616 410Q606 356 579
312T530 237Q519 221 506 203T479 170T453 144T430 134Q428 134 428 137Q428 141 431 153T446 197Q453 216 455 233T457 254Q457 283 438 295T401 308Q380 308 362 301T327 282T297 258T273 235L271 237Q274 242 280 254T292 283T303 316T308 348Q308 354 304 364T292
383T273 400T249 407H246Q217 403 198 389T162 354Q139 326 117 301T76 257T46 224T34 206Q34 198 40 192T57 186Q61 186 74 196T105 221T141 253T175 286Q177 289 183 294T196 306T209 316T217 321Q221 321 221 314Q221 309 220 307Q211 287 199 263T177 216T159
175T151 148Q151 145 154 136T163 116T180 98T204 90Q214 90 219 94Q232 111 256 134T306 179T353 215T380 230Q386 230 386 227Q386 225 385 223T383 218Q377 195 371 171T362 111V110Q362 105 366 95T378 75T398 57T425 49Q435 49 449 55Q503 82 538 126T602
221Q603 222 608 235T622 263T638 290T651 302Q656 302 663 296T681 283T704 269T732 262H734Q743 262 758 265T789 274T821 286T848 297Q863 303 874 307T892 317T902 329T905 348Q905 352 903 362Z" />
<glyph unicode="x" glyph-name="x" horiz-adv-x="402" d="M480 408Q480 418 473 422T457 427H452Q442 427 424 420T382 402T333 376T282 347Q280 346 271 341T250 331T229 322T215 317Q208 317 205 326T202 342Q202 352 204 362T206 384Q206 395 202 403T190 415T176
422T161 424Q131 424 120 404T107 361V357Q107 346 111 331T122 303T132 278T137 263Q137 257 130 250T122 242Q117 237 99 224T61 192T26 153T10 114V107Q10 90 25 82T55 73Q70 73 77 81T87 99T91 121T96 138Q98 141 105 150T120 168T138 185T156 193H157Q165
191 169 181T177 156T182 124T189 93T200 70T218 60Q229 60 236 69T246 89V93Q246 107 243 122T236 152T229 183T225 213Q225 228 234 241T257 264T285 282T310 294Q327 303 355 315T411 343T459 374T480 408Z" />
<glyph unicode="y" glyph-name="y" horiz-adv-x="370" d="M446 241Q443 244 438 244Q434 244 421 236T391 213T352 182T311 149T273 119T244 96H243Q242 96 242 98Q242 104 247 123T260 165T275 207T287 233Q297 251 309 263T332 285T350 303T357 322Q357 329
354 339T343 360T325 377T301 384Q287 384 278 373T260 345T244 310T223 279Q217 272 206 259T183 234T157 212T132 202Q122 202 122 214Q122 228 130 245T147 277T163 302T171 312Q188 319 197 323T211 331T216 341T217 358Q217 385 197 403T150 421H143Q135 421
127 413T112 394T99 372T90 353Q81 333 75 317T63 286T55 253T49 214V212Q49 203 53 192T65 171T83 152T105 142H108Q127 142 141 150T164 159Q166 159 168 158T170 151Q170 148 169 145Q169 117 158 94T129 49T92 9T57 -30Q34 -61 20 -90T5 -154Q5 -166 8 -179T18
-204T36 -224T64 -232Q82 -232 90 -219T100 -198T111 -170T133 -121T160 -64T185 -13Q190 -3 208 11T249 42T299 77T347 113T387 145T421 175T445 202T454 225V226Q454 236 446 241ZM122 -37Q109 -69 98 -84T83 -99Q76 -99 76 -90Q76 -82 81 -75T94 -60T110 -47T122
-37Z" />
<glyph unicode="z" glyph-name="z" horiz-adv-x="304" d="M328 174Q324 178 315 178Q307 178 293 175T262 168T230 160T205 153Q177 148 167 148Q154 148 154 154Q154 155 171 172T211 210T257 253T293 282Q299 288 305 291T315 298T323 311T327 334V337Q327 361
312 374T272 395T220 405T167 407Q153 407 141 407T121 406H99H96Q85 406 75 395T65 368Q65 354 75 340T103 323H107Q115 323 119 324T127 327T134 330T144 332H158Q172 332 181 330T191 318Q191 310 183 298T163 273T140 249T123 234Q109 223 92 212T58 188T30
162T19 136Q19 125 26 114T44 93T68 77T93 71Q114 71 148 78T217 96T278 115T311 126Q324 131 329 139T335 156Q335 167 328 174Z" />
<glyph unicode="{" glyph-name="braceleft" horiz-adv-x="370" d="M167 506V414Q161 397 149 392T121 385T89 384Q73 384 60 378Q28 352 17 324T6 261Q6 238 17 228T40 207T64 180T75 129Q75 104 68 83Q65 72 55 49T34 -1T15 -52T6 -90Q6 -116 17 -136T46 -170T87
-192T134 -200Q145 -200 171 -199T226 -193T275 -176T296 -144Q296 -133 289 -122T272 -102T249 -88T226 -82H225Q217 -82 207 -85T186 -91T167 -97T155 -100H152Q141 -100 133 -97T125 -77Q125 -65 135 -45T157 4T180 73T190 163Q190 171 189 188T186 223T183
255T181 270Q181 277 182 277T186 280Q237 282 259 307T282 372V380Q281 388 281 397Q281 406 281 414Q281 479 286 517T301 575T327 601T364 607Q375 607 385 606T405 605Q425 605 437 614T450 655Q450 677 439 702T410 749T367 785T317 800Q290 800 269 783T231
738T202 678T182 611T171 550T167 506Z" />
<glyph unicode="|" glyph-name="bar" horiz-adv-x="379" d="M202 715Q193 669 185 607T168 476T153 335T141 198T133 78T130 -10Q130 -35 131 -50T139 -76T156 -93T185 -106Q186 -106 186 -106T189 -107Q195 -107 202 -104T217 -96T230 -82T235 -63Q235 -54 231
-48T222 -32T212 -7T208 37Q208 80 210 112T215 170T221 219T227 267Q233 325 246 376T281 476T330 571T395 665Q396 669 396 673Q396 677 396 681Q396 714 383 735T353 768T317 786T290 791Q248 791 228 769T202 715Z" />
<glyph unicode="}" glyph-name="braceright" horiz-adv-x="412" d="M147 752V743Q147 723 155 704T176 671T207 647T245 638Q247 638 249 638T254 639Q257 633 257 620Q255 607 242 587T214 543T185 493T168 442Q167 436 167 430Q167 424 167 419Q167 394 172
376T183 344T195 321T200 304V303Q200 303 195 287T184 249T170 202T160 163Q152 129 151 95T145 30Q143 16 137 -7T120 -53T93 -92T54 -109H47Q42 -109 33 -104T19 -99H16Q6 -99 -8 -107T-24 -130V-133Q-24 -146 -15 -156T5 -172T28 -182T45 -186Q72 -186 95 -172T139
-135T175 -84T203 -29T222 22T230 59Q236 112 258 162T331 245Q333 247 338 247Q343 247 349 246T361 245H364Q378 247 386 254T396 276V281Q396 305 377 320T335 348T292 376T273 415V420Q276 447 296 476T341 534T385 593T409 649V658Q409 685 394 709T357 752T309
783T261 797Q254 798 245 798T226 799Q213 799 200 797T175 790T156 776T147 752Z" />
<glyph unicode="~" glyph-name="asciitilde" horiz-adv-x="541" d="M101 404Q98 395 98 379Q98 363 103 346T118 314T141 291T173 281Q200 281 210 293T229 330Q230 333 240 340T263 354T290 366T313 372H314Q338 370 354 362T386 343T420 325T466 317Q495 317
524 333T595 389Q599 393 607 402T623 423T637 445T643 464V467Q641 479 630 486T605 494Q594 494 579 484T546 463T510 441T476 431Q459 431 442 440T409 461T376 484T344 498Q338 500 332 500Q327 500 321 500Q302 500 269 494T201 475T138 445T101 404Z" />
</font>
</defs>
</svg>
